<?xml version="1.0" encoding="utf-8"?>
<!-- Generator: Adobe Illustrator 16.0.5, SVG Export Plug-In . SVG Version: 6.00 Build 0)  -->
<!DOCTYPE svg PUBLIC "-//W3C//DTD SVG 1.1//EN" "http://www.w3.org/Graphics/SVG/1.1/DTD/svg11.dtd">
<svg version="1.1" xmlns="http://www.w3.org/2000/svg" xmlns:xlink="http://www.w3.org/1999/xlink" x="0px" y="0px" width="960px"
	 height="560px" viewBox="0 0 960 560" enable-background="new 0 0 960 560" xml:space="preserve">
<g id="Trajet">
	<g id="trace-trajet">
		<g>
			<path fill="none" stroke="#D0B600" stroke-width="4" stroke-miterlimit="10" d="M228.385,41.154c0,0,2.159-0.175,5.986-0.334"/>
			<path fill="none" stroke="#D0B600" stroke-width="4" stroke-miterlimit="10" stroke-dasharray="11.9327,11.9327" d="
				M246.298,40.571c40.526-0.079,136.582,7.165,147.471,76.736C407.615,205.769,353,248.077,316.846,280
				s-70.77,80.384-23.077,121.923s181.539-15.385,181.539-15.385s33.076-17.692,46.923,7.692s18.462,68.462-59.23,83.847
				c-61.176,12.114-68.935,32.812-64.587,47.825"/>
			<path fill="none" stroke="#D0B600" stroke-width="4" stroke-miterlimit="10" d="M400.63,531.434
				c0.952,1.862,2.036,3.577,3.139,5.104"/>
		</g>
	</g>
</g>
<g id="ile">
	<g id="ile_1_">
		<ellipse fill="#FBB03B" cx="196.461" cy="48.846" rx="21.154" ry="16.539"/>
		<ellipse fill="#FCEE21" cx="196.461" cy="46.73" rx="21.154" ry="14.423"/>
	</g>
	<path fill="#FFFFFF" stroke="#754C24" stroke-width="3" stroke-miterlimit="10" d="M187.539,43.57c0,0-3.077-17.108-9.231-17.878"
		/>
	<g>
		<path fill="none" stroke="#39B54A" stroke-width="3" stroke-miterlimit="10" d="M178.951,25.304l19.945,2.655
			C198.896,27.959,183.102,20.697,178.951,25.304z"/>
		<path fill="none" stroke="#39B54A" stroke-width="3" stroke-miterlimit="10" d="M178.858,26.213c0,0-0.468-0.229-1.251-0.581
			l1.108-1.458l16.696-5.889c0,0-8.566,0.35-14.223,2.632l7.819-10.298c0,0-10.432,7.495-12.116,13.338
			c-0.203,0.322-0.359,0.662-0.455,1.021l0.253-0.089c-0.014,0.113-0.014,0.222-0.019,0.333c-4.446-1.911-14.404-5.628-17.682-2.172
			l17.433,2.776c-0.244,0.192-0.51,0.405-0.794,0.636c-4.968,0.504-14.995,2.071-16.176,6.56l14.571-5.214
			c-4.013,3.473-9.443,9.039-8.183,12.837l10.331-13.605l2.226-0.796c0,0-0.497,0.023-1.318,0.088l0.271-0.357L178.858,26.213z
			 M176.683,26.363l0.066-0.088c0.006,0.027,0.013,0.053,0.02,0.08C176.742,26.357,176.711,26.36,176.683,26.363z"/>
	</g>
</g>
<g id="croix">
	<polygon fill="#FF0000" points="532.362,396 537.222,390.107 532.592,386.289 524.585,396 512,396 512,402 519.638,402 
		514.779,407.893 519.408,411.71 527.415,402 540,402 540,396 	"/>
	<polygon fill="#FF0000" points="314.135,292.439 321.754,292.978 322.176,286.991 309.622,286.106 302.317,275.858 297.432,279.34 
		301.864,285.56 294.246,285.023 293.824,291.008 306.378,291.894 313.682,302.142 318.568,298.66 	"/>
	<polygon fill="#FF0000" points="400.363,123.003 405.225,117.113 400.597,113.292 392.586,123 380.001,122.995 379.999,128.994 
		387.636,128.997 382.775,134.888 387.402,138.707 395.414,129.001 407.998,129.006 408.001,123.006 	"/>
</g>
</svg>
